<svg width="104" height="104" viewBox="0 0 104 104" xmlns="http://www.w3.org/2000/svg">
  <defs>
    <linearGradient id="g-followup" x1="0%" y1="0%" x2="100%" y2="100%">
      <stop offset="0%" stop-color="#34d399"/>
      <stop offset="100%" stop-color="#059669"/>
    </linearGradient>
  </defs>
  <rect x="2" y="2" width="100" height="100" rx="22" fill="url(#g-followup)"/>
  <!-- 心形 -->
  <path d="M52 74 C40 66 28 58 28 46 C28 38 34 32 42 32 C47 32 51 35 52 38 C53 35 57 32 62 32 C70 32 76 38 76 46 C76 58 64 66 52 74 Z"
        fill="#ffffff"/>
  <!-- 心电图波形在心形内 -->
  <path d="M34 48 L42 48 L46 42 L52 54 L58 44 L70 48" fill="none" stroke="#059669" stroke-width="2.5" stroke-linecap="round" stroke-linejoin="round"/>
  <!-- 随访时间标记 -->
  <circle cx="78" cy="30" r="6" fill="none" stroke="#ffffff" stroke-width="2.5"/>
  <line x1="78" y1="30" x2="78" y2="33" stroke="#ffffff" stroke-width="2" stroke-linecap="round"/>
  <line x1="78" y1="30" x2="80" y2="30" stroke="#ffffff" stroke-width="2" stroke-linecap="round"/>
</svg>